#N canvas 777 86 404 706 12;
#X obj 87 168 netsend -u -b;
#X msg 212 105 disconnect;
#X obj 87 202 tgl 15 0 empty empty connected? 17 7 0 10 -262144 -1
-1 0 1;
#X text 29 56 send;
#X obj 212 136 r \$0-oscout;
#X obj 34 565 s \$0-oscout;
#X obj 34 533 oscformat /lang;
#X msg 34 447 0 noise;
#X msg 110 447 1 chinese;
#X msg 215 447 2 english;
#X msg 314 447 3 french;
#X msg 55 479 4 german;
#X msg 132 479 5 italian;
#X msg 215 479 6 russian;
#X msg 314 479 7 spanish;
#X obj 141 386 s \$0-oscout;
#X obj 141 353 oscformat /state;
#X msg 32 244 wait;
#X obj 141 323 symbol;
#X msg 83 244 listen;
#X msg 141 244 detect;
#X msg 181 278 success;
#X msg 247 278 fail;
#X msg 290 278 timeout;
#X symbolatom 87 69 20 0 0 0 - - -;
#X text 202 240 state message;
#X text 36 412 lang message;
#X text 15 9 generate LID system OSC messages for testing;
#X msg 133 42 symbol localhost;
#X obj 33 637 oscformat /proximity;
#X obj 36 607 hsl 128 15 0 1 0 0 empty empty empty -2 -8 0 10 -262144
-1 -1 0 1;
#X msg 87 135 connect \$1 \$2;
#X msg 87 42 bang;
#X floatatom 244 69 5 0 0 0 - - -;
#X obj 33 670 s \$0-oscout;
#X obj 87 105 pack s 9999;
#X text 183 604 proximity message;
#X connect 0 0 2 0;
#X connect 1 0 0 0;
#X connect 4 0 0 0;
#X connect 6 0 5 0;
#X connect 7 0 6 0;
#X connect 8 0 6 0;
#X connect 9 0 6 0;
#X connect 10 0 6 0;
#X connect 11 0 6 0;
#X connect 12 0 6 0;
#X connect 13 0 6 0;
#X connect 14 0 6 0;
#X connect 16 0 15 0;
#X connect 17 0 18 0;
#X connect 18 0 16 0;
#X connect 19 0 18 0;
#X connect 20 0 18 0;
#X connect 21 0 18 0;
#X connect 22 0 18 0;
#X connect 23 0 18 0;
#X connect 24 0 35 0;
#X connect 28 0 24 0;
#X connect 29 0 34 0;
#X connect 30 0 29 0;
#X connect 31 0 0 0;
#X connect 32 0 24 0;
#X connect 33 0 35 1;
#X connect 35 0 31 0;
