#N canvas 1001 91 410 620 12;
#X obj 87 168 netsend -u -b;
#X msg 212 102 disconnect;
#X obj 87 202 tgl 15 0 empty empty connected? 17 7 0 10 -262144 -1
-1 1 1;
#X text 29 56 send;
#X obj 212 136 r \$0-oscout;
#X obj 34 585 s \$0-oscout;
#X obj 34 553 oscformat /lang;
#X msg 34 457 0 noise;
#X msg 110 457 1 chinese;
#X msg 215 457 2 english;
#X msg 314 457 3 french;
#X msg 55 499 4 german;
#X msg 132 499 5 italian;
#X msg 215 499 6 russian;
#X msg 314 499 7 spanish;
#X obj 141 406 s \$0-oscout;
#X obj 141 373 oscformat /state;
#X msg 32 244 wait;
#X obj 141 343 symbol;
#X msg 83 267 listen;
#X msg 141 267 detect;
#X msg 181 298 success;
#X msg 247 298 fail;
#X msg 290 298 timeout;
#X symbolatom 169 57 20 0 0 0 - - -;
#X msg 87 57 localhost;
#X msg 87 102 connect \$1 9999;
#X text 121 236 state message;
#X text 36 422 lang message;
#X text 15 9 generate LID system OSC messages for testing;
#X connect 0 0 2 0;
#X connect 1 0 0 0;
#X connect 4 0 0 0;
#X connect 6 0 5 0;
#X connect 7 0 6 0;
#X connect 8 0 6 0;
#X connect 9 0 6 0;
#X connect 10 0 6 0;
#X connect 11 0 6 0;
#X connect 12 0 6 0;
#X connect 13 0 6 0;
#X connect 14 0 6 0;
#X connect 16 0 15 0;
#X connect 17 0 18 0;
#X connect 18 0 16 0;
#X connect 19 0 18 0;
#X connect 20 0 18 0;
#X connect 21 0 18 0;
#X connect 22 0 18 0;
#X connect 23 0 18 0;
#X connect 24 0 26 0;
#X connect 25 0 26 0;
#X connect 26 0 0 0;
